<?xml version="1.0" encoding="iso-8859-1"?>
<!-- Generator: Adobe Illustrator 19.0.0, SVG Export Plug-In . SVG Version: 6.00 Build 0)  -->
<svg xmlns="http://www.w3.org/2000/svg" xmlns:xlink="http://www.w3.org/1999/xlink" version="1.1" id="Layer_1" x="0px" y="0px" viewBox="0 0 502 502" style="enable-background:new 0 0 502 502;" xml:space="preserve" width="512" height="512">
<g>
	<g>
		<path style="fill:#4D93E8;" d="M430.01,189.01C430.01,287.875,251,492,251,492S71.99,287.875,71.99,189.01S152.135,10,251,10    S430.01,90.146,430.01,189.01z"/>
		<path d="M251,502c-2.88,0-5.62-1.241-7.519-3.406c-7.411-8.45-181.492-208.122-181.492-309.583C61.989,84.79,146.779,0,251,0    s189.011,84.79,189.011,189.011c0,101.461-174.082,301.133-181.492,309.583C256.62,500.759,253.88,502,251,502z M251,20    C157.807,20,81.989,95.818,81.989,189.011c0,38.347,30.317,101.559,87.675,182.801c33.237,47.079,66.775,87.639,81.335,104.825    c14.58-17.212,48.187-57.857,81.435-104.964c57.293-81.175,87.576-144.339,87.576-182.662C420.011,95.818,344.193,20,251,20z"/>
	</g>
	<g>
		<circle style="fill:#CCD7EB;" cx="251" cy="185" r="124"/>
		<path d="M251,319c-73.888,0-134-60.112-134-134S177.112,51,251,51s134,60.112,134,134S324.888,319,251,319z M251,71    c-62.86,0-114,51.141-114,114s51.14,114,114,114s114-51.141,114-114S313.86,71,251,71z"/>
	</g>
	<g>
		<path d="M247.076,444.988c-3.006,0-5.978-1.35-7.947-3.921l-8.38-10.943c-3.358-4.385-2.525-10.661,1.859-14.02    c4.386-3.357,10.662-2.525,14.02,1.859l8.38,10.943c3.358,4.385,2.525,10.661-1.859,14.02    C251.335,444.315,249.197,444.988,247.076,444.988z"/>
	</g>
	<g>
		<path d="M212.498,399.836c-3.006,0-5.978-1.35-7.947-3.921l-25.146-32.835c-3.358-4.385-2.526-10.661,1.859-14.02    c4.385-3.356,10.661-2.526,14.02,1.859l25.146,32.835c3.358,4.385,2.526,10.661-1.859,14.02    C216.756,399.163,214.619,399.836,212.498,399.836z"/>
	</g>
</g>















</svg>
